<?xml version="1.0" encoding="UTF-8" standalone="no"?>
<svg
   xmlns:dc="http://purl.org/dc/elements/1.1/"
   xmlns:cc="http://creativecommons.org/ns#"
   xmlns:rdf="http://www.w3.org/1999/02/22-rdf-syntax-ns#"
   xmlns:svg="http://www.w3.org/2000/svg"
   xmlns="http://www.w3.org/2000/svg"
   xmlns:xlink="http://www.w3.org/1999/xlink"
   xmlns:sodipodi="http://sodipodi.sourceforge.net/DTD/sodipodi-0.dtd"
   xmlns:inkscape="http://www.inkscape.org/namespaces/inkscape"
   width="600"
   height="480"
   viewBox="0 0 600 480"
   id="svg2"
   version="1.1"
   inkscape:version="0.48.4 r9939"
   sodipodi:docname="100.svg">
  <metadata
     id="metadata185">
    <rdf:RDF>
      <cc:Work
         rdf:about="">
        <dc:format>image/svg+xml</dc:format>
        <dc:type
           rdf:resource="http://purl.org/dc/dcmitype/StillImage" />
      </cc:Work>
    </rdf:RDF>
  </metadata>
  <defs
     id="defs183" />
  <sodipodi:namedview
     pagecolor="#ffffff"
     bordercolor="#666666"
     borderopacity="1"
     objecttolerance="10"
     gridtolerance="10"
     guidetolerance="10"
     inkscape:pageopacity="0"
     inkscape:pageshadow="2"
     inkscape:window-width="1366"
     inkscape:window-height="744"
     id="namedview181"
     showgrid="false"
     inkscape:zoom="1.1854167"
     inkscape:cx="300"
     inkscape:cy="240"
     inkscape:window-x="0"
     inkscape:window-y="24"
     inkscape:window-maximized="1"
     inkscape:current-layer="gnuplot_canvas" />
  <title
     id="title4">Gnuplot</title>
  <desc
     id="desc6">Produced by GNUPLOT 4.6 patchlevel 4 </desc>
  <g
     id="gnuplot_canvas">
    <rect
       x="0"
       y="0"
       width="600"
       height="480"
       fill="none"
       id="rect9" />
    <defs
       id="defs11">
      <circle
         id="gpDot"
         r="0.5"
         stroke-width="0.5" />
      <path
         id="gpPt0"
         stroke-width="0.222"
         stroke="currentColor"
         d="M-1,0 h2 M0,-1 v2" />
      <path
         id="gpPt1"
         stroke-width="0.222"
         stroke="currentColor"
         d="M-1,-1 L1,1 M1,-1 L-1,1" />
      <path
         id="gpPt2"
         stroke-width="0.222"
         stroke="currentColor"
         d="M-1,0 L1,0 M0,-1 L0,1 M-1,-1 L1,1 M-1,1 L1,-1" />
      <rect
         id="gpPt3"
         stroke-width="0.222"
         stroke="currentColor"
         x="-1"
         y="-1"
         width="2"
         height="2" />
      <rect
         id="gpPt4"
         stroke-width="0.222"
         stroke="currentColor"
         fill="currentColor"
         x="-1"
         y="-1"
         width="2"
         height="2" />
      <circle
         id="gpPt5"
         stroke-width="0.222"
         stroke="currentColor"
         cx="0"
         cy="0"
         r="1" />
      <use
         xlink:href="#gpPt5"
         id="gpPt6"
         fill="currentColor"
         stroke="none" />
      <path
         id="gpPt7"
         stroke-width="0.222"
         stroke="currentColor"
         d="M0,-1.33 L-1.33,0.67 L1.33,0.67 z" />
      <use
         xlink:href="#gpPt7"
         id="gpPt8"
         fill="currentColor"
         stroke="none" />
      <use
         xlink:href="#gpPt7"
         id="gpPt9"
         stroke="currentColor"
         transform="rotate(180)" />
      <use
         xlink:href="#gpPt9"
         id="gpPt10"
         fill="currentColor"
         stroke="none" />
      <use
         xlink:href="#gpPt3"
         id="gpPt11"
         stroke="currentColor"
         transform="rotate(45)" />
      <use
         xlink:href="#gpPt11"
         id="gpPt12"
         fill="currentColor"
         stroke="none" />
    </defs>
    <g
       style="fill:none; color:white; stroke:black; stroke-width:1.00; stroke-linecap:butt; stroke-linejoin:miter"
       id="g27" />
    <g
       style="fill:none; color:black; stroke:currentColor; stroke-width:1.00; stroke-linecap:butt; stroke-linejoin:miter"
       id="g29">
      <path
         stroke="black"
         d="M88.5,422.4 L97.5,422.4 M575.0,422.4 L566.0,422.4  h0.01"
         id="path31" />
      <g
         transform="translate(80.2,426.9)"
         style="stroke:none; fill:black; font-family:Arial; font-size:12.00pt; text-anchor:end"
         id="g33">
        <text
           id="text35"> 0</text>
      </g>
      <path
         stroke="black"
         d="M88.5,364.4 L97.5,364.4 M575.0,364.4 L566.0,364.4  h0.01"
         id="path37" />
      <g
         transform="translate(80.2,368.9)"
         style="stroke:none; fill:black; font-family:Arial; font-size:12.00pt; text-anchor:end"
         id="g39">
        <text
           id="text41"> 2000</text>
      </g>
      <path
         stroke="black"
         d="M88.5,306.5 L97.5,306.5 M575.0,306.5 L566.0,306.5  h0.01"
         id="path43" />
      <g
         transform="translate(80.2,311.0)"
         style="stroke:none; fill:black; font-family:Arial; font-size:12.00pt; text-anchor:end"
         id="g45">
        <text
           id="text47"> 4000</text>
      </g>
      <path
         stroke="black"
         d="M88.5,248.5 L97.5,248.5 M575.0,248.5 L566.0,248.5  h0.01"
         id="path49" />
      <g
         transform="translate(80.2,253.0)"
         style="stroke:none; fill:black; font-family:Arial; font-size:12.00pt; text-anchor:end"
         id="g51">
        <text
           id="text53"> 6000</text>
      </g>
      <path
         stroke="black"
         d="M88.5,190.6 L97.5,190.6 M575.0,190.6 L566.0,190.6  h0.01"
         id="path55" />
      <g
         transform="translate(80.2,195.1)"
         style="stroke:none; fill:black; font-family:Arial; font-size:12.00pt; text-anchor:end"
         id="g57">
        <text
           id="text59"> 8000</text>
      </g>
      <path
         stroke="black"
         d="M88.5,132.6 L97.5,132.6 M575.0,132.6 L566.0,132.6  h0.01"
         id="path61" />
      <g
         transform="translate(80.2,137.1)"
         style="stroke:none; fill:black; font-family:Arial; font-size:12.00pt; text-anchor:end"
         id="g63">
        <text
           id="text65"> 10000</text>
      </g>
      <path
         stroke="black"
         d="M88.5,74.7 L97.5,74.7 M575.0,74.7 L566.0,74.7  h0.01"
         id="path67" />
      <g
         transform="translate(80.2,79.2)"
         style="stroke:none; fill:black; font-family:Arial; font-size:12.00pt; text-anchor:end"
         id="g69">
        <text
           id="text71"> 12000</text>
      </g>
      <path
         stroke="black"
         d="M88.5,16.7 L97.5,16.7 M575.0,16.7 L566.0,16.7  h0.01"
         id="path73" />
      <g
         transform="translate(80.2,21.2)"
         style="stroke:none; fill:black; font-family:Arial; font-size:12.00pt; text-anchor:end"
         id="g75">
        <text
           id="text77"> 14000</text>
      </g>
      <path
         stroke="black"
         d="M88.5,422.4 L88.5,413.4 M88.5,16.7 L88.5,25.7  h0.01"
         id="path79" />
      <g
         transform="translate(88.5,444.9)"
         style="stroke:none; fill:black; font-family:Arial; font-size:12.00pt; text-anchor:middle"
         id="g81">
        <text
           id="text83"> 0</text>
      </g>
      <path
         stroke="black"
         d="M137.2,422.4 L137.2,413.4 M137.2,16.7 L137.2,25.7  h0.01"
         id="path85" />
      <g
         transform="translate(137.2,444.9)"
         style="stroke:none; fill:black; font-family:Arial; font-size:12.00pt; text-anchor:middle"
         id="g87">
        <text
           id="text89"> 10</text>
      </g>
      <path
         stroke="black"
         d="M185.8,422.4 L185.8,413.4 M185.8,16.7 L185.8,25.7  h0.01"
         id="path91" />
      <g
         transform="translate(185.8,444.9)"
         style="stroke:none; fill:black; font-family:Arial; font-size:12.00pt; text-anchor:middle"
         id="g93">
        <text
           id="text95"> 20</text>
      </g>
      <path
         stroke="black"
         d="M234.5,422.4 L234.5,413.4 M234.5,16.7 L234.5,25.7  h0.01"
         id="path97" />
      <g
         transform="translate(234.5,444.9)"
         style="stroke:none; fill:black; font-family:Arial; font-size:12.00pt; text-anchor:middle"
         id="g99">
        <text
           id="text101"> 30</text>
      </g>
      <path
         stroke="black"
         d="M283.1,422.4 L283.1,413.4 M283.1,16.7 L283.1,25.7  h0.01"
         id="path103" />
      <g
         transform="translate(283.1,444.9)"
         style="stroke:none; fill:black; font-family:Arial; font-size:12.00pt; text-anchor:middle"
         id="g105">
        <text
           id="text107"> 40</text>
      </g>
      <path
         stroke="black"
         d="M331.8,422.4 L331.8,413.4 M331.8,16.7 L331.8,25.7  h0.01"
         id="path109" />
      <g
         transform="translate(331.8,444.9)"
         style="stroke:none; fill:black; font-family:Arial; font-size:12.00pt; text-anchor:middle"
         id="g111">
        <text
           id="text113"> 50</text>
      </g>
      <path
         stroke="black"
         d="M380.4,422.4 L380.4,413.4 M380.4,16.7 L380.4,25.7  h0.01"
         id="path115" />
      <g
         transform="translate(380.4,444.9)"
         style="stroke:none; fill:black; font-family:Arial; font-size:12.00pt; text-anchor:middle"
         id="g117">
        <text
           id="text119"> 60</text>
      </g>
      <path
         stroke="black"
         d="M429.1,422.4 L429.1,413.4 M429.1,16.7 L429.1,25.7  h0.01"
         id="path121" />
      <g
         transform="translate(429.1,444.9)"
         style="stroke:none; fill:black; font-family:Arial; font-size:12.00pt; text-anchor:middle"
         id="g123">
        <text
           id="text125"> 70</text>
      </g>
      <path
         stroke="black"
         d="M477.7,422.4 L477.7,413.4 M477.7,16.7 L477.7,25.7  h0.01"
         id="path127" />
      <g
         transform="translate(477.7,444.9)"
         style="stroke:none; fill:black; font-family:Arial; font-size:12.00pt; text-anchor:middle"
         id="g129">
        <text
           id="text131"> 80</text>
      </g>
      <path
         stroke="black"
         d="M526.4,422.4 L526.4,413.4 M526.4,16.7 L526.4,25.7  h0.01"
         id="path133" />
      <g
         transform="translate(526.4,444.9)"
         style="stroke:none; fill:black; font-family:Arial; font-size:12.00pt; text-anchor:middle"
         id="g135">
        <text
           id="text137"> 90</text>
      </g>
      <path
         stroke="black"
         d="M575.0,422.4 L575.0,413.4 M575.0,16.7 L575.0,25.7  h0.01"
         id="path139" />
      <g
         transform="translate(575.0,444.9)"
         style="stroke:none; fill:black; font-family:Arial; font-size:12.00pt; text-anchor:middle"
         id="g141">
        <text
           id="text143"> 100</text>
      </g>
      <path
         stroke="black"
         d="M88.5,16.7 L88.5,422.4 L575.0,422.4 L575.0,16.7 L88.5,16.7 Z  h0.01"
         id="path145" />
      <g
         transform="translate(17.6,219.6) rotate(270)"
         style="stroke:none; fill:black; font-family:Arial; font-size:12.00pt; text-anchor:middle"
         id="g147">
        <text
           id="text149">Space Occupied (Bytes)</text>
      </g>
      <g
         transform="translate(331.7,471.9)"
         style="stroke:none; fill:black; font-family:Arial; font-size:12.00pt; text-anchor:middle"
         id="g151">
        <text
           id="text153">Number of Records</text>
      </g>
    </g>
    <g
       id="gnuplot_plot_1">
      <title
         id="title156">gnuplot_plot_1</title>
      <g
         style="fill:none; color:red; stroke:currentColor; stroke-width:1.00; stroke-linecap:butt; stroke-linejoin:miter"
         id="g158">
        <g
           transform="translate(507.9,39.2)"
           style="stroke:none; fill:black; font-family:Arial; font-size:12.00pt; text-anchor:end"
           id="g160">
          <text
             id="text162">Proposed Graph Storage</text>
        </g>
        <path
           d="M516.2,34.7 L558.4,34.7 M93.4,418.7 L98.2,414.7 L103.1,410.1 L108.0,405.7 L112.8,402.1 L117.7,398.8    L122.6,394.5 L127.4,391.1 L132.3,386.7 L137.2,382.9 L142.0,380.0 L146.9,377.2 L151.7,374.9 L156.6,371.6    L161.5,369.0 L166.3,365.6 L171.2,362.6 L176.1,359.1 L180.9,356.2 L185.8,352.6 L190.7,348.3 L195.5,345.3    L200.4,342.4 L205.3,339.7 L210.1,335.6 L215.0,332.6 L219.9,329.7 L224.7,325.5 L229.6,322.9 L234.5,320.6    L239.3,317.1 L244.2,314.8 L249.0,311.1 L253.9,307.8 L258.8,304.5 L263.6,300.9 L268.5,297.2 L273.4,294.2    L278.2,292.0 L283.1,288.3 L288.0,285.6 L292.8,281.4 L297.7,279.2 L302.6,276.5 L307.4,273.4 L312.3,270.5    L317.2,267.2 L322.0,263.8 L326.9,260.0 L331.8,257.7 L336.6,255.0 L341.5,252.3 L346.3,250.1 L351.2,247.8    L356.1,244.1 L360.9,241.4 L365.8,239.1 L370.7,236.9 L375.5,234.2 L380.4,229.9 L385.3,227.1 L390.1,224.9    L395.0,221.4 L399.9,219.1 L404.7,216.0 L409.6,213.8 L414.5,211.6 L419.3,208.0 L424.2,205.0 L429.1,202.7    L433.9,200.5 L438.8,198.2 L443.6,196.0 L448.5,192.7 L453.4,190.4 L458.2,188.1 L463.1,185.5 L468.0,183.3    L472.8,181.0 L477.7,178.2 L482.6,175.9 L487.4,172.2 L492.3,168.5 L497.2,165.3 L502.0,162.6 L506.9,160.0    L511.8,157.7 L516.6,155.4 L521.5,153.2 L526.4,150.9 L531.2,148.7 L536.1,145.2 L540.9,143.0 L545.8,140.7    L550.7,137.5 L555.5,135.2 L560.4,133.0 L565.3,130.7 L570.1,127.1 L575.0,124.4  h0.01"
           id="path164"
           style="stroke-width:1;stroke-miterlimit:4;stroke-dasharray:none;stroke-dashoffset:0" />
      </g>
    </g>
    <g
       id="gnuplot_plot_2">
      <title
         id="title167">gnuplot_plot_2</title>
      <g
         style="fill:none; color:green; stroke:currentColor; stroke-width:1.00; stroke-linecap:butt; stroke-linejoin:miter"
         id="g169">
        <g
           transform="translate(507.9,57.2)"
           style="stroke:none; fill:black; font-family:Arial; font-size:12.00pt; text-anchor:end"
           id="g171">
          <text
             id="text173">Traditional Relational Databases</text>
        </g>
        <path
           d="M516.2,52.7 L558.4,52.7 M93.4,418.9 L98.2,415.3 L103.1,411.8 L108.0,408.3 L112.8,404.7 L117.7,401.2    L122.6,397.7 L127.4,394.1 L132.3,390.6 L137.2,387.0 L142.0,383.5 L146.9,380.0 L151.7,376.4 L156.6,372.9    L161.5,369.4 L166.3,365.8 L171.2,362.3 L176.1,358.8 L180.9,355.2 L185.8,351.7 L190.7,348.2 L195.5,344.6    L200.4,341.1 L205.3,337.6 L210.1,334.0 L215.0,330.5 L219.9,326.9 L224.7,323.4 L229.6,319.9 L234.5,316.3    L239.3,312.8 L244.2,309.3 L249.0,305.7 L253.9,302.2 L258.8,298.7 L263.6,295.1 L268.5,291.6 L273.4,288.1    L278.2,284.5 L283.1,281.0 L288.0,277.4 L292.8,273.9 L297.7,270.4 L302.6,266.8 L307.4,263.3 L312.3,259.8    L317.2,256.2 L322.0,252.7 L326.9,249.2 L331.8,245.6 L336.6,242.1 L341.5,238.6 L346.3,235.0 L351.2,231.5    L356.1,228.0 L360.9,224.4 L365.8,220.9 L370.7,217.3 L375.5,213.8 L380.4,210.3 L385.3,206.7 L390.1,203.2    L395.0,199.7 L399.9,196.1 L404.7,192.6 L409.6,189.1 L414.5,185.5 L419.3,182.0 L424.2,178.5 L429.1,174.9    L433.9,171.4 L438.8,167.9 L443.6,164.3 L448.5,160.8 L453.4,157.2 L458.2,153.7 L463.1,150.2 L468.0,146.6    L472.8,143.1 L477.7,139.6 L482.6,136.0 L487.4,132.5 L492.3,129.0 L497.2,125.4 L502.0,121.9 L506.9,118.4    L511.8,114.8 L516.6,111.3 L521.5,107.8 L526.4,104.2 L531.2,100.7 L536.1,97.1 L540.9,93.6 L545.8,90.1    L550.7,86.5 L555.5,83.0 L560.4,79.5 L565.3,75.9 L570.1,72.4 L575.0,68.9  h0.01"
           id="path175"
           style="stroke-width:1;stroke-miterlimit:4;stroke-dasharray:3,3;stroke-dashoffset:0" />
      </g>
    </g>
    <g
       style="fill:none; color:black; stroke:currentColor; stroke-width:1.00; stroke-linecap:butt; stroke-linejoin:miter"
       id="g177">
      <path
         stroke="black"
         d="M88.5,16.7 L88.5,422.4 L575.0,422.4 L575.0,16.7 L88.5,16.7 Z  h0.01"
         id="path179" />
    </g>
  </g>
</svg>
