<?xml version="1.0" encoding="UTF-8" standalone="no"?>
<svg
   xmlns:dc="http://purl.org/dc/elements/1.1/"
   xmlns:cc="http://creativecommons.org/ns#"
   xmlns:rdf="http://www.w3.org/1999/02/22-rdf-syntax-ns#"
   xmlns:svg="http://www.w3.org/2000/svg"
   xmlns="http://www.w3.org/2000/svg"
   xmlns:xlink="http://www.w3.org/1999/xlink"
   xmlns:sodipodi="http://sodipodi.sourceforge.net/DTD/sodipodi-0.dtd"
   xmlns:inkscape="http://www.inkscape.org/namespaces/inkscape"
   width="600"
   height="480"
   viewBox="0 0 600 480"
   id="svg2"
   version="1.1"
   inkscape:version="0.48.4 r9939"
   sodipodi:docname="1000.svg">
  <metadata
     id="metadata185">
    <rdf:RDF>
      <cc:Work
         rdf:about="">
        <dc:format>image/svg+xml</dc:format>
        <dc:type
           rdf:resource="http://purl.org/dc/dcmitype/StillImage" />
      </cc:Work>
    </rdf:RDF>
  </metadata>
  <defs
     id="defs183" />
  <sodipodi:namedview
     pagecolor="#ffffff"
     bordercolor="#666666"
     borderopacity="1"
     objecttolerance="10"
     gridtolerance="10"
     guidetolerance="10"
     inkscape:pageopacity="0"
     inkscape:pageshadow="2"
     inkscape:window-width="1366"
     inkscape:window-height="744"
     id="namedview181"
     showgrid="false"
     inkscape:zoom="1.1854167"
     inkscape:cx="225.71121"
     inkscape:cy="240"
     inkscape:window-x="0"
     inkscape:window-y="24"
     inkscape:window-maximized="1"
     inkscape:current-layer="gnuplot_canvas" />
  <title
     id="title4">Gnuplot</title>
  <desc
     id="desc6">Produced by GNUPLOT 4.6 patchlevel 4 </desc>
  <g
     id="gnuplot_canvas">
    <rect
       x="0"
       y="0"
       width="600"
       height="480"
       fill="none"
       id="rect9" />
    <defs
       id="defs11">
      <circle
         id="gpDot"
         r="0.5"
         stroke-width="0.5" />
      <path
         id="gpPt0"
         stroke-width="0.222"
         stroke="currentColor"
         d="M-1,0 h2 M0,-1 v2" />
      <path
         id="gpPt1"
         stroke-width="0.222"
         stroke="currentColor"
         d="M-1,-1 L1,1 M1,-1 L-1,1" />
      <path
         id="gpPt2"
         stroke-width="0.222"
         stroke="currentColor"
         d="M-1,0 L1,0 M0,-1 L0,1 M-1,-1 L1,1 M-1,1 L1,-1" />
      <rect
         id="gpPt3"
         stroke-width="0.222"
         stroke="currentColor"
         x="-1"
         y="-1"
         width="2"
         height="2" />
      <rect
         id="gpPt4"
         stroke-width="0.222"
         stroke="currentColor"
         fill="currentColor"
         x="-1"
         y="-1"
         width="2"
         height="2" />
      <circle
         id="gpPt5"
         stroke-width="0.222"
         stroke="currentColor"
         cx="0"
         cy="0"
         r="1" />
      <use
         xlink:href="#gpPt5"
         id="gpPt6"
         fill="currentColor"
         stroke="none" />
      <path
         id="gpPt7"
         stroke-width="0.222"
         stroke="currentColor"
         d="M0,-1.33 L-1.33,0.67 L1.33,0.67 z" />
      <use
         xlink:href="#gpPt7"
         id="gpPt8"
         fill="currentColor"
         stroke="none" />
      <use
         xlink:href="#gpPt7"
         id="gpPt9"
         stroke="currentColor"
         transform="rotate(180)" />
      <use
         xlink:href="#gpPt9"
         id="gpPt10"
         fill="currentColor"
         stroke="none" />
      <use
         xlink:href="#gpPt3"
         id="gpPt11"
         stroke="currentColor"
         transform="rotate(45)" />
      <use
         xlink:href="#gpPt11"
         id="gpPt12"
         fill="currentColor"
         stroke="none" />
    </defs>
    <g
       style="fill:none; color:white; stroke:black; stroke-width:1.00; stroke-linecap:butt; stroke-linejoin:miter"
       id="g27" />
    <g
       style="fill:none; color:black; stroke:currentColor; stroke-width:1.00; stroke-linecap:butt; stroke-linejoin:miter"
       id="g29">
      <path
         stroke="black"
         d="M96.8,422.4 L105.8,422.4 M575.0,422.4 L566.0,422.4  h0.01"
         id="path31" />
      <g
         transform="translate(88.5,426.9)"
         style="stroke:none; fill:black; font-family:Arial; font-size:12.00pt; text-anchor:end"
         id="g33">
        <text
           id="text35"> 0</text>
      </g>
      <path
         stroke="black"
         d="M96.8,364.4 L105.8,364.4 M575.0,364.4 L566.0,364.4  h0.01"
         id="path37" />
      <g
         transform="translate(88.5,368.9)"
         style="stroke:none; fill:black; font-family:Arial; font-size:12.00pt; text-anchor:end"
         id="g39">
        <text
           id="text41"> 20000</text>
      </g>
      <path
         stroke="black"
         d="M96.8,306.5 L105.8,306.5 M575.0,306.5 L566.0,306.5  h0.01"
         id="path43" />
      <g
         transform="translate(88.5,311.0)"
         style="stroke:none; fill:black; font-family:Arial; font-size:12.00pt; text-anchor:end"
         id="g45">
        <text
           id="text47"> 40000</text>
      </g>
      <path
         stroke="black"
         d="M96.8,248.5 L105.8,248.5 M575.0,248.5 L566.0,248.5  h0.01"
         id="path49" />
      <g
         transform="translate(88.5,253.0)"
         style="stroke:none; fill:black; font-family:Arial; font-size:12.00pt; text-anchor:end"
         id="g51">
        <text
           id="text53"> 60000</text>
      </g>
      <path
         stroke="black"
         d="M96.8,190.6 L105.8,190.6 M575.0,190.6 L566.0,190.6  h0.01"
         id="path55" />
      <g
         transform="translate(88.5,195.1)"
         style="stroke:none; fill:black; font-family:Arial; font-size:12.00pt; text-anchor:end"
         id="g57">
        <text
           id="text59"> 80000</text>
      </g>
      <path
         stroke="black"
         d="M96.8,132.6 L105.8,132.6 M575.0,132.6 L566.0,132.6  h0.01"
         id="path61" />
      <g
         transform="translate(88.5,137.1)"
         style="stroke:none; fill:black; font-family:Arial; font-size:12.00pt; text-anchor:end"
         id="g63">
        <text
           id="text65"> 100000</text>
      </g>
      <path
         stroke="black"
         d="M96.8,74.7 L105.8,74.7 M575.0,74.7 L566.0,74.7  h0.01"
         id="path67" />
      <g
         transform="translate(88.5,79.2)"
         style="stroke:none; fill:black; font-family:Arial; font-size:12.00pt; text-anchor:end"
         id="g69">
        <text
           id="text71"> 120000</text>
      </g>
      <path
         stroke="black"
         d="M96.8,16.7 L105.8,16.7 M575.0,16.7 L566.0,16.7  h0.01"
         id="path73" />
      <g
         transform="translate(88.5,21.2)"
         style="stroke:none; fill:black; font-family:Arial; font-size:12.00pt; text-anchor:end"
         id="g75">
        <text
           id="text77"> 140000</text>
      </g>
      <path
         stroke="black"
         d="M96.8,422.4 L96.8,413.4 M96.8,16.7 L96.8,25.7  h0.01"
         id="path79" />
      <g
         transform="translate(96.8,444.9)"
         style="stroke:none; fill:black; font-family:Arial; font-size:12.00pt; text-anchor:middle"
         id="g81">
        <text
           id="text83"> 0</text>
      </g>
      <path
         stroke="black"
         d="M144.6,422.4 L144.6,413.4 M144.6,16.7 L144.6,25.7  h0.01"
         id="path85" />
      <g
         transform="translate(144.6,444.9)"
         style="stroke:none; fill:black; font-family:Arial; font-size:12.00pt; text-anchor:middle"
         id="g87">
        <text
           id="text89"> 100</text>
      </g>
      <path
         stroke="black"
         d="M192.4,422.4 L192.4,413.4 M192.4,16.7 L192.4,25.7  h0.01"
         id="path91" />
      <g
         transform="translate(192.4,444.9)"
         style="stroke:none; fill:black; font-family:Arial; font-size:12.00pt; text-anchor:middle"
         id="g93">
        <text
           id="text95"> 200</text>
      </g>
      <path
         stroke="black"
         d="M240.3,422.4 L240.3,413.4 M240.3,16.7 L240.3,25.7  h0.01"
         id="path97" />
      <g
         transform="translate(240.3,444.9)"
         style="stroke:none; fill:black; font-family:Arial; font-size:12.00pt; text-anchor:middle"
         id="g99">
        <text
           id="text101"> 300</text>
      </g>
      <path
         stroke="black"
         d="M288.1,422.4 L288.1,413.4 M288.1,16.7 L288.1,25.7  h0.01"
         id="path103" />
      <g
         transform="translate(288.1,444.9)"
         style="stroke:none; fill:black; font-family:Arial; font-size:12.00pt; text-anchor:middle"
         id="g105">
        <text
           id="text107"> 400</text>
      </g>
      <path
         stroke="black"
         d="M335.9,422.4 L335.9,413.4 M335.9,16.7 L335.9,25.7  h0.01"
         id="path109" />
      <g
         transform="translate(335.9,444.9)"
         style="stroke:none; fill:black; font-family:Arial; font-size:12.00pt; text-anchor:middle"
         id="g111">
        <text
           id="text113"> 500</text>
      </g>
      <path
         stroke="black"
         d="M383.7,422.4 L383.7,413.4 M383.7,16.7 L383.7,25.7  h0.01"
         id="path115" />
      <g
         transform="translate(383.7,444.9)"
         style="stroke:none; fill:black; font-family:Arial; font-size:12.00pt; text-anchor:middle"
         id="g117">
        <text
           id="text119"> 600</text>
      </g>
      <path
         stroke="black"
         d="M431.5,422.4 L431.5,413.4 M431.5,16.7 L431.5,25.7  h0.01"
         id="path121" />
      <g
         transform="translate(431.5,444.9)"
         style="stroke:none; fill:black; font-family:Arial; font-size:12.00pt; text-anchor:middle"
         id="g123">
        <text
           id="text125"> 700</text>
      </g>
      <path
         stroke="black"
         d="M479.4,422.4 L479.4,413.4 M479.4,16.7 L479.4,25.7  h0.01"
         id="path127" />
      <g
         transform="translate(479.4,444.9)"
         style="stroke:none; fill:black; font-family:Arial; font-size:12.00pt; text-anchor:middle"
         id="g129">
        <text
           id="text131"> 800</text>
      </g>
      <path
         stroke="black"
         d="M527.2,422.4 L527.2,413.4 M527.2,16.7 L527.2,25.7  h0.01"
         id="path133" />
      <g
         transform="translate(527.2,444.9)"
         style="stroke:none; fill:black; font-family:Arial; font-size:12.00pt; text-anchor:middle"
         id="g135">
        <text
           id="text137"> 900</text>
      </g>
      <path
         stroke="black"
         d="M575.0,422.4 L575.0,413.4 M575.0,16.7 L575.0,25.7  h0.01"
         id="path139" />
      <g
         transform="translate(575.0,444.9)"
         style="stroke:none; fill:black; font-family:Arial; font-size:12.00pt; text-anchor:middle"
         id="g141">
        <text
           id="text143"> 1000</text>
      </g>
      <path
         stroke="black"
         d="M96.8,16.7 L96.8,422.4 L575.0,422.4 L575.0,16.7 L96.8,16.7 Z  h0.01"
         id="path145" />
      <g
         transform="translate(17.6,219.6) rotate(270)"
         style="stroke:none; fill:black; font-family:Arial; font-size:12.00pt; text-anchor:middle"
         id="g147">
        <text
           id="text149">Space Occupied (Bytes)</text>
      </g>
      <g
         transform="translate(335.9,471.9)"
         style="stroke:none; fill:black; font-family:Arial; font-size:12.00pt; text-anchor:middle"
         id="g151">
        <text
           id="text153">Number of Records</text>
      </g>
    </g>
    <g
       id="gnuplot_plot_1">
      <title
         id="title156">gnuplot_plot_1</title>
      <g
         style="fill:none; color:red; stroke:currentColor; stroke-width:1.00; stroke-linecap:butt; stroke-linejoin:miter"
         id="g158">
        <g
           transform="translate(507.9,39.2)"
           style="stroke:none; fill:black; font-family:Arial; font-size:12.00pt; text-anchor:end"
           id="g160">
          <text
             id="text162">Proposed Graph Storage</text>
        </g>
        <path
           d="M516.2,34.7 L558.4,34.7 M101.6,422.0 L106.4,418.2 L111.1,414.6 L115.9,410.9 L120.7,407.4 L125.5,404.0    L130.3,400.4 L135.1,396.7 L139.8,393.1 L144.6,389.9 L149.4,386.7 L154.2,382.9 L159.0,379.6 L163.7,376.3    L168.5,372.8 L173.3,369.4 L178.1,366.3 L182.9,363.0 L187.7,359.6 L192.4,356.4 L197.2,352.9 L202.0,349.9    L206.8,346.5 L211.6,343.4 L216.4,340.2 L221.1,336.7 L225.9,333.1 L230.7,329.9 L235.5,327.0 L240.3,323.7    L245.0,320.6 L249.8,317.3 L254.6,314.4 L259.4,311.3 L264.2,308.1 L269.0,305.1 L273.7,302.1 L278.5,298.9    L283.3,295.6 L288.1,292.5 L292.9,289.3 L297.6,286.1 L302.4,282.9 L307.2,279.8 L312.0,276.7 L316.8,273.8    L321.6,271.0 L326.3,267.7 L331.1,264.7 L335.9,261.8 L340.7,259.2 L345.5,256.2 L350.2,253.2 L355.0,250.5    L359.8,247.4 L364.6,244.4 L369.4,241.4 L374.2,238.8 L378.9,235.7 L383.7,232.9 L388.5,230.3 L393.3,227.4    L398.1,224.7 L402.8,221.8 L407.6,219.0 L412.4,216.2 L417.2,213.2 L422.0,210.1 L426.8,207.5 L431.5,204.8    L436.3,202.0 L441.1,199.2 L445.9,196.5 L450.7,193.9 L455.5,190.9 L460.2,188.2 L465.0,185.5 L469.8,183.0    L474.6,180.4 L479.4,177.6 L484.1,174.8 L488.9,172.0 L493.7,169.7 L498.5,166.9 L503.3,164.3 L508.1,161.8    L512.8,159.3 L517.6,156.5 L522.4,154.0 L527.2,151.6 L532.0,148.9 L536.7,146.4 L541.5,144.0 L546.3,141.5    L551.1,138.9 L555.9,136.2 L560.7,133.7 L565.4,131.3 L570.2,128.9 L575.0,126.5  h0.01"
           id="path164"
           style="stroke-width:1;stroke-miterlimit:4;stroke-dasharray:none;stroke-dashoffset:0" />
      </g>
    </g>
    <g
       id="gnuplot_plot_2">
      <title
         id="title167">gnuplot_plot_2</title>
      <g
         style="fill:none; color:green; stroke:currentColor; stroke-width:1.00; stroke-linecap:butt; stroke-linejoin:miter"
         id="g169">
        <g
           transform="translate(507.9,57.2)"
           style="stroke:none; fill:black; font-family:Arial; font-size:12.00pt; text-anchor:end"
           id="g171">
          <text
             id="text173">Traditional Relational Databases</text>
        </g>
        <path
           d="M516.2,52.7 L558.4,52.7 M101.6,422.0 L106.4,418.5 L111.1,415.0 L115.9,411.4 L120.7,407.9 L125.5,404.4    L130.3,400.8 L135.1,397.3 L139.8,393.8 L144.6,390.2 L149.4,386.7 L154.2,383.2 L159.0,379.6 L163.7,376.1    L168.5,372.6 L173.3,369.0 L178.1,365.5 L182.9,361.9 L187.7,358.4 L192.4,354.9 L197.2,351.3 L202.0,347.8    L206.8,344.3 L211.6,340.7 L216.4,337.2 L221.1,333.7 L225.9,330.1 L230.7,326.6 L235.5,323.1 L240.3,319.5    L245.0,316.0 L249.8,312.4 L254.6,308.9 L259.4,305.4 L264.2,301.8 L269.0,298.3 L273.7,294.8 L278.5,291.2    L283.3,287.7 L288.1,284.2 L292.9,280.6 L297.6,277.1 L302.4,273.6 L307.2,270.0 L312.0,266.5 L316.8,263.0    L321.6,259.4 L326.3,255.9 L331.1,252.3 L335.9,248.8 L340.7,245.3 L345.5,241.7 L350.2,238.2 L355.0,234.7    L359.8,231.1 L364.6,227.6 L369.4,224.1 L374.2,220.5 L378.9,217.0 L383.7,213.5 L388.5,209.9 L393.3,206.4    L398.1,202.9 L402.8,199.3 L407.6,195.8 L412.4,192.2 L417.2,188.7 L422.0,185.2 L426.8,181.6 L431.5,178.1    L436.3,174.6 L441.1,171.0 L445.9,167.5 L450.7,164.0 L455.5,160.4 L460.2,156.9 L465.0,153.4 L469.8,149.8    L474.6,146.3 L479.4,142.8 L484.1,139.2 L488.9,135.7 L493.7,132.1 L498.5,128.6 L503.3,125.1 L508.1,121.5    L512.8,118.0 L517.6,114.5 L522.4,110.9 L527.2,107.4 L532.0,103.9 L536.7,100.3 L541.5,96.8 L546.3,93.3    L551.1,89.7 L555.9,86.2 L560.7,82.6 L565.4,79.1 L570.2,75.6 L575.0,72.0  h0.01"
           id="path175"
           style="stroke-width:1;stroke-miterlimit:4;stroke-dasharray:3,3;stroke-dashoffset:0" />
      </g>
    </g>
    <g
       style="fill:none; color:black; stroke:currentColor; stroke-width:1.00; stroke-linecap:butt; stroke-linejoin:miter"
       id="g177">
      <path
         stroke="black"
         d="M96.8,16.7 L96.8,422.4 L575.0,422.4 L575.0,16.7 L96.8,16.7 Z  h0.01"
         id="path179" />
    </g>
  </g>
</svg>
