<?xml version="1.0" encoding="UTF-8" standalone="no"?>
<svg
   xmlns:dc="http://purl.org/dc/elements/1.1/"
   xmlns:cc="http://creativecommons.org/ns#"
   xmlns:rdf="http://www.w3.org/1999/02/22-rdf-syntax-ns#"
   xmlns:svg="http://www.w3.org/2000/svg"
   xmlns="http://www.w3.org/2000/svg"
   xmlns:xlink="http://www.w3.org/1999/xlink"
   xmlns:sodipodi="http://sodipodi.sourceforge.net/DTD/sodipodi-0.dtd"
   xmlns:inkscape="http://www.inkscape.org/namespaces/inkscape"
   width="600"
   height="480"
   viewBox="0 0 600 480"
   id="svg2"
   version="1.1"
   inkscape:version="0.48.4 r9939"
   sodipodi:docname="10000.svg">
  <metadata
     id="metadata185">
    <rdf:RDF>
      <cc:Work
         rdf:about="">
        <dc:format>image/svg+xml</dc:format>
        <dc:type
           rdf:resource="http://purl.org/dc/dcmitype/StillImage" />
      </cc:Work>
    </rdf:RDF>
  </metadata>
  <defs
     id="defs183" />
  <sodipodi:namedview
     pagecolor="#ffffff"
     bordercolor="#666666"
     borderopacity="1"
     objecttolerance="10"
     gridtolerance="10"
     guidetolerance="10"
     inkscape:pageopacity="0"
     inkscape:pageshadow="2"
     inkscape:window-width="1366"
     inkscape:window-height="744"
     id="namedview181"
     showgrid="false"
     inkscape:zoom="1.1854167"
     inkscape:cx="315.16137"
     inkscape:cy="240"
     inkscape:window-x="0"
     inkscape:window-y="24"
     inkscape:window-maximized="1"
     inkscape:current-layer="svg2" />
  <title
     id="title4">Gnuplot</title>
  <desc
     id="desc6">Produced by GNUPLOT 4.6 patchlevel 4 </desc>
  <g
     id="gnuplot_canvas">
    <rect
       x="0"
       y="0"
       width="600"
       height="480"
       fill="none"
       id="rect9" />
    <defs
       id="defs11">
      <circle
         id="gpDot"
         r="0.5"
         stroke-width="0.5" />
      <path
         id="gpPt0"
         stroke-width="0.222"
         stroke="currentColor"
         d="M-1,0 h2 M0,-1 v2" />
      <path
         id="gpPt1"
         stroke-width="0.222"
         stroke="currentColor"
         d="M-1,-1 L1,1 M1,-1 L-1,1" />
      <path
         id="gpPt2"
         stroke-width="0.222"
         stroke="currentColor"
         d="M-1,0 L1,0 M0,-1 L0,1 M-1,-1 L1,1 M-1,1 L1,-1" />
      <rect
         id="gpPt3"
         stroke-width="0.222"
         stroke="currentColor"
         x="-1"
         y="-1"
         width="2"
         height="2" />
      <rect
         id="gpPt4"
         stroke-width="0.222"
         stroke="currentColor"
         fill="currentColor"
         x="-1"
         y="-1"
         width="2"
         height="2" />
      <circle
         id="gpPt5"
         stroke-width="0.222"
         stroke="currentColor"
         cx="0"
         cy="0"
         r="1" />
      <use
         xlink:href="#gpPt5"
         id="gpPt6"
         fill="currentColor"
         stroke="none" />
      <path
         id="gpPt7"
         stroke-width="0.222"
         stroke="currentColor"
         d="M0,-1.33 L-1.33,0.67 L1.33,0.67 z" />
      <use
         xlink:href="#gpPt7"
         id="gpPt8"
         fill="currentColor"
         stroke="none" />
      <use
         xlink:href="#gpPt7"
         id="gpPt9"
         stroke="currentColor"
         transform="rotate(180)" />
      <use
         xlink:href="#gpPt9"
         id="gpPt10"
         fill="currentColor"
         stroke="none" />
      <use
         xlink:href="#gpPt3"
         id="gpPt11"
         stroke="currentColor"
         transform="rotate(45)" />
      <use
         xlink:href="#gpPt11"
         id="gpPt12"
         fill="currentColor"
         stroke="none" />
    </defs>
    <g
       style="fill:none; color:white; stroke:black; stroke-width:1.00; stroke-linecap:butt; stroke-linejoin:miter"
       id="g27" />
    <g
       style="fill:none; color:black; stroke:currentColor; stroke-width:1.00; stroke-linecap:butt; stroke-linejoin:miter"
       id="g29">
      <path
         stroke="black"
         d="M105.1,422.4 L114.1,422.4 M575.0,422.4 L566.0,422.4  h0.01"
         id="path31" />
      <g
         transform="translate(96.8,426.9)"
         style="stroke:none; fill:black; font-family:Arial; font-size:12.00pt; text-anchor:end"
         id="g33">
        <text
           id="text35"> 0</text>
      </g>
      <path
         stroke="black"
         d="M105.1,364.4 L114.1,364.4 M575.0,364.4 L566.0,364.4  h0.01"
         id="path37" />
      <g
         transform="translate(96.8,368.9)"
         style="stroke:none; fill:black; font-family:Arial; font-size:12.00pt; text-anchor:end"
         id="g39">
        <text
           id="text41"> 200000</text>
      </g>
      <path
         stroke="black"
         d="M105.1,306.5 L114.1,306.5 M575.0,306.5 L566.0,306.5  h0.01"
         id="path43" />
      <g
         transform="translate(96.8,311.0)"
         style="stroke:none; fill:black; font-family:Arial; font-size:12.00pt; text-anchor:end"
         id="g45">
        <text
           id="text47"> 400000</text>
      </g>
      <path
         stroke="black"
         d="M105.1,248.5 L114.1,248.5 M575.0,248.5 L566.0,248.5  h0.01"
         id="path49" />
      <g
         transform="translate(96.8,253.0)"
         style="stroke:none; fill:black; font-family:Arial; font-size:12.00pt; text-anchor:end"
         id="g51">
        <text
           id="text53"> 600000</text>
      </g>
      <path
         stroke="black"
         d="M105.1,190.6 L114.1,190.6 M575.0,190.6 L566.0,190.6  h0.01"
         id="path55" />
      <g
         transform="translate(96.8,195.1)"
         style="stroke:none; fill:black; font-family:Arial; font-size:12.00pt; text-anchor:end"
         id="g57">
        <text
           id="text59"> 800000</text>
      </g>
      <path
         stroke="black"
         d="M105.1,132.6 L114.1,132.6 M575.0,132.6 L566.0,132.6  h0.01"
         id="path61" />
      <g
         transform="translate(96.8,137.1)"
         style="stroke:none; fill:black; font-family:Arial; font-size:12.00pt; text-anchor:end"
         id="g63">
        <text
           id="text65"> 1e+06</text>
      </g>
      <path
         stroke="black"
         d="M105.1,74.7 L114.1,74.7 M575.0,74.7 L566.0,74.7  h0.01"
         id="path67" />
      <g
         transform="translate(96.8,79.2)"
         style="stroke:none; fill:black; font-family:Arial; font-size:12.00pt; text-anchor:end"
         id="g69">
        <text
           id="text71"> 1.2e+06</text>
      </g>
      <path
         stroke="black"
         d="M105.1,16.7 L114.1,16.7 M575.0,16.7 L566.0,16.7  h0.01"
         id="path73" />
      <g
         transform="translate(96.8,21.2)"
         style="stroke:none; fill:black; font-family:Arial; font-size:12.00pt; text-anchor:end"
         id="g75">
        <text
           id="text77"> 1.4e+06</text>
      </g>
      <path
         stroke="black"
         d="M105.1,422.4 L105.1,413.4 M105.1,16.7 L105.1,25.7  h0.01"
         id="path79" />
      <g
         transform="translate(105.1,444.9)"
         style="stroke:none; fill:black; font-family:Arial; font-size:12.00pt; text-anchor:middle"
         id="g81">
        <text
           id="text83"> 0</text>
      </g>
      <path
         stroke="black"
         d="M152.1,422.4 L152.1,413.4 M152.1,16.7 L152.1,25.7  h0.01"
         id="path85" />
      <g
         transform="translate(152.1,444.9)"
         style="stroke:none; fill:black; font-family:Arial; font-size:12.00pt; text-anchor:middle"
         id="g87">
        <text
           id="text89"> 1000</text>
      </g>
      <path
         stroke="black"
         d="M199.1,422.4 L199.1,413.4 M199.1,16.7 L199.1,25.7  h0.01"
         id="path91" />
      <g
         transform="translate(199.1,444.9)"
         style="stroke:none; fill:black; font-family:Arial; font-size:12.00pt; text-anchor:middle"
         id="g93">
        <text
           id="text95"> 2000</text>
      </g>
      <path
         stroke="black"
         d="M246.1,422.4 L246.1,413.4 M246.1,16.7 L246.1,25.7  h0.01"
         id="path97" />
      <g
         transform="translate(246.1,444.9)"
         style="stroke:none; fill:black; font-family:Arial; font-size:12.00pt; text-anchor:middle"
         id="g99">
        <text
           id="text101"> 3000</text>
      </g>
      <path
         stroke="black"
         d="M293.1,422.4 L293.1,413.4 M293.1,16.7 L293.1,25.7  h0.01"
         id="path103" />
      <g
         transform="translate(293.1,444.9)"
         style="stroke:none; fill:black; font-family:Arial; font-size:12.00pt; text-anchor:middle"
         id="g105">
        <text
           id="text107"> 4000</text>
      </g>
      <path
         stroke="black"
         d="M340.1,422.4 L340.1,413.4 M340.1,16.7 L340.1,25.7  h0.01"
         id="path109" />
      <g
         transform="translate(340.1,444.9)"
         style="stroke:none; fill:black; font-family:Arial; font-size:12.00pt; text-anchor:middle"
         id="g111">
        <text
           id="text113"> 5000</text>
      </g>
      <path
         stroke="black"
         d="M387.0,422.4 L387.0,413.4 M387.0,16.7 L387.0,25.7  h0.01"
         id="path115" />
      <g
         transform="translate(387.0,444.9)"
         style="stroke:none; fill:black; font-family:Arial; font-size:12.00pt; text-anchor:middle"
         id="g117">
        <text
           id="text119"> 6000</text>
      </g>
      <path
         stroke="black"
         d="M434.0,422.4 L434.0,413.4 M434.0,16.7 L434.0,25.7  h0.01"
         id="path121" />
      <g
         transform="translate(434.0,444.9)"
         style="stroke:none; fill:black; font-family:Arial; font-size:12.00pt; text-anchor:middle"
         id="g123">
        <text
           id="text125"> 7000</text>
      </g>
      <path
         stroke="black"
         d="M481.0,422.4 L481.0,413.4 M481.0,16.7 L481.0,25.7  h0.01"
         id="path127" />
      <g
         transform="translate(481.0,444.9)"
         style="stroke:none; fill:black; font-family:Arial; font-size:12.00pt; text-anchor:middle"
         id="g129">
        <text
           id="text131"> 8000</text>
      </g>
      <path
         stroke="black"
         d="M528.0,422.4 L528.0,413.4 M528.0,16.7 L528.0,25.7  h0.01"
         id="path133" />
      <g
         transform="translate(528.0,444.9)"
         style="stroke:none; fill:black; font-family:Arial; font-size:12.00pt; text-anchor:middle"
         id="g135">
        <text
           id="text137"> 9000</text>
      </g>
      <path
         stroke="black"
         d="M575.0,422.4 L575.0,413.4 M575.0,16.7 L575.0,25.7  h0.01"
         id="path139" />
      <g
         transform="translate(575.0,444.9)"
         style="stroke:none; fill:black; font-family:Arial; font-size:12.00pt; text-anchor:middle"
         id="g141">
        <text
           id="text143"> 10000</text>
      </g>
      <path
         stroke="black"
         d="M105.1,16.7 L105.1,422.4 L575.0,422.4 L575.0,16.7 L105.1,16.7 Z  h0.01"
         id="path145" />
      <g
         transform="translate(17.6,219.6) rotate(270)"
         style="stroke:none; fill:black; font-family:Arial; font-size:12.00pt; text-anchor:middle"
         id="g147">
        <text
           id="text149">Space Occupied (Bytes)</text>
      </g>
      <g
         transform="translate(340.0,471.9)"
         style="stroke:none; fill:black; font-family:Arial; font-size:12.00pt; text-anchor:middle"
         id="g151">
        <text
           id="text153">Number of Records</text>
      </g>
    </g>
    <g
       id="gnuplot_plot_1">
      <title
         id="title156">gnuplot_plot_1</title>
      <g
         style="fill:none; color:red; stroke:currentColor; stroke-width:1.00; stroke-linecap:butt; stroke-linejoin:miter"
         id="g158">
        <g
           transform="translate(507.9,39.2)"
           style="stroke:none; fill:black; font-family:Arial; font-size:12.00pt; text-anchor:end"
           id="g160">
          <text
             id="text162">Proposed Graph Storage</text>
        </g>
        <path
           d="M516.2,34.7 L558.4,34.7 M109.8,422.4 L114.5,418.7 L119.2,415.0 L123.9,411.4 L128.6,407.7 L133.3,404.1    L138.0,400.6 L142.7,397.0 L147.4,393.4 L152.1,389.9 L156.8,386.4 L161.5,382.9 L166.2,379.4 L170.9,375.9    L175.6,372.3 L180.3,368.9 L185.0,365.5 L189.7,362.2 L194.4,358.8 L199.1,355.3 L203.8,352.0 L208.5,348.5    L213.2,345.3 L217.9,342.0 L222.6,338.8 L227.3,335.5 L232.0,332.3 L236.7,329.1 L241.4,325.8 L246.1,322.7    L250.8,319.6 L255.5,316.4 L260.2,313.2 L264.9,310.1 L269.6,307.0 L274.3,303.8 L279.0,300.7 L283.7,297.6    L288.4,294.5 L293.1,291.5 L297.8,288.4 L302.5,285.3 L307.2,282.2 L311.9,279.3 L316.6,276.2 L321.3,273.2    L326.0,270.1 L330.7,267.0 L335.4,264.1 L340.1,261.1 L344.7,258.3 L349.4,255.4 L354.1,252.4 L358.8,249.6    L363.5,246.7 L368.2,243.8 L372.9,240.9 L377.6,238.0 L382.3,235.1 L387.0,232.4 L391.7,229.5 L396.4,226.8    L401.1,223.9 L405.8,221.2 L410.5,218.4 L415.2,215.6 L419.9,212.7 L424.6,210.0 L429.3,207.1 L434.0,204.3    L438.7,201.6 L443.4,198.8 L448.1,196.1 L452.8,193.4 L457.5,190.6 L462.2,187.9 L466.9,185.1 L471.6,182.4    L476.3,179.7 L481.0,177.0 L485.7,174.2 L490.4,171.5 L495.1,168.8 L499.8,166.1 L504.5,163.5 L509.2,161.0    L513.9,158.3 L518.6,155.7 L523.3,152.9 L528.0,150.3 L532.7,147.6 L537.4,144.9 L542.1,142.3 L546.8,139.8    L551.5,137.1 L556.2,134.4 L560.9,131.9 L565.6,129.3 L570.3,126.6 L575.0,124.0  h0.01"
           id="path164"
           style="stroke-width:1;stroke-miterlimit:4;stroke-dasharray:none;stroke-dashoffset:0" />
      </g>
    </g>
    <g
       id="gnuplot_plot_2">
      <title
         id="title167">gnuplot_plot_2</title>
      <g
         style="fill:none; color:green; stroke:currentColor; stroke-width:1.00; stroke-linecap:butt; stroke-linejoin:miter"
         id="g169">
        <g
           transform="translate(507.9,57.2)"
           style="stroke:none; fill:black; font-family:Arial; font-size:12.00pt; text-anchor:end"
           id="g171">
          <text
             id="text173">Traditional Relational Databases</text>
        </g>
        <path
           d="M516.2,52.7 L558.4,52.7 M109.8,422.4 L114.5,418.8 L119.2,415.3 L123.9,411.8 L128.6,408.2 L133.3,404.7    L138.0,401.2 L142.7,397.6 L147.4,394.1 L152.1,390.5 L156.8,387.0 L161.5,383.5 L166.2,379.9 L170.9,376.4    L175.6,372.9 L180.3,369.3 L185.0,365.8 L189.7,362.3 L194.4,358.7 L199.1,355.2 L203.8,351.7 L208.5,348.1    L213.2,344.6 L217.9,341.1 L222.6,337.5 L227.3,334.0 L232.0,330.4 L236.7,326.9 L241.4,323.4 L246.1,319.8    L250.8,316.3 L255.5,312.8 L260.2,309.2 L264.9,305.7 L269.6,302.2 L274.3,298.6 L279.0,295.1 L283.7,291.6    L288.4,288.0 L293.1,284.5 L297.8,280.9 L302.5,277.4 L307.2,273.9 L311.9,270.3 L316.6,266.8 L321.3,263.3    L326.0,259.7 L330.7,256.2 L335.4,252.7 L340.1,249.1 L344.7,245.6 L349.4,242.1 L354.1,238.5 L358.8,235.0    L363.5,231.5 L368.2,227.9 L372.9,224.4 L377.6,220.8 L382.3,217.3 L387.0,213.8 L391.7,210.2 L396.4,206.7    L401.1,203.2 L405.8,199.6 L410.5,196.1 L415.2,192.6 L419.9,189.0 L424.6,185.5 L429.3,182.0 L434.0,178.4    L438.7,174.9 L443.4,171.4 L448.1,167.8 L452.8,164.3 L457.5,160.7 L462.2,157.2 L466.9,153.7 L471.6,150.1    L476.3,146.6 L481.0,143.1 L485.7,139.5 L490.4,136.0 L495.1,132.5 L499.8,128.9 L504.5,125.4 L509.2,121.9    L513.9,118.3 L518.6,114.8 L523.3,111.3 L528.0,107.7 L532.7,104.2 L537.4,100.6 L542.1,97.1 L546.8,93.6    L551.5,90.0 L556.2,86.5 L560.9,83.0 L565.6,79.4 L570.3,75.9 L575.0,72.4  h0.01"
           id="path175"
           style="stroke-width:1;stroke-miterlimit:4;stroke-dasharray:3,3;stroke-dashoffset:0" />
      </g>
    </g>
    <g
       style="fill:none; color:black; stroke:currentColor; stroke-width:1.00; stroke-linecap:butt; stroke-linejoin:miter"
       id="g177">
      <path
         stroke="black"
         d="M105.1,16.7 L105.1,422.4 L575.0,422.4 L575.0,16.7 L105.1,16.7 Z  h0.01"
         id="path179" />
    </g>
  </g>
</svg>
